<?xml version="1.0" encoding="UTF-8" standalone="no"?>
<svg
   xmlns:dc="http://purl.org/dc/elements/1.1/"
   xmlns:cc="http://creativecommons.org/ns#"
   xmlns:rdf="http://www.w3.org/1999/02/22-rdf-syntax-ns#"
   xmlns:svg="http://www.w3.org/2000/svg"
   xmlns="http://www.w3.org/2000/svg"
   xmlns:sodipodi="http://sodipodi.sourceforge.net/DTD/sodipodi-0.dtd"
   xmlns:inkscape="http://www.inkscape.org/namespaces/inkscape"
   width="876"
   height="762"
   version="1.1"
   id="svg366"
   sodipodi:docname="iphone-feature-bg-03.svg"
   inkscape:version="1.0.1 (3bc2e813f5, 2020-09-07)">
  <metadata
     id="metadata370">
    <rdf:RDF>
      <cc:Work
         rdf:about="">
        <dc:format>image/svg+xml</dc:format>
        <dc:type
           rdf:resource="http://purl.org/dc/dcmitype/StillImage" />
      </cc:Work>
    </rdf:RDF>
  </metadata>
  <sodipodi:namedview
     pagecolor="#ffffff"
     bordercolor="#666666"
     borderopacity="1"
     objecttolerance="10"
     gridtolerance="10"
     guidetolerance="10"
     inkscape:pageopacity="0"
     inkscape:pageshadow="2"
     inkscape:window-width="1920"
     inkscape:window-height="1057"
     id="namedview368"
     showgrid="false"
     inkscape:zoom="1.167979"
     inkscape:cx="438"
     inkscape:cy="381"
     inkscape:window-x="1912"
     inkscape:window-y="-8"
     inkscape:window-maximized="1"
     inkscape:current-layer="g364" />
  <defs
     id="defs350">
    <linearGradient
       x1="50%"
       y1="0%"
       x2="50%"
       y2="100%"
       id="b">
      <stop
         stop-color="#4234F8"
         offset="0%"
         id="stop324" />
      <stop
         stop-color="#4234F8"
         stop-opacity="0"
         offset="100%"
         id="stop326" />
    </linearGradient>
    <radialGradient
       cx="33.3%"
       cy="43.394%"
       fx="33.3%"
       fy="43.394%"
       r="58.178%"
       gradientTransform="scale(.90193 1) rotate(-74.113 .351 .41)"
       id="c">
      <stop
         stop-color="#FF6C50"
         stop-opacity="0"
         offset="0%"
         id="stop329" />
      <stop
         stop-color="#FF6C50"
         stop-opacity=".64"
         offset="51.712%"
         id="stop331" />
      <stop
         stop-color="#FF6C50"
         stop-opacity=".24"
         offset="100%"
         id="stop333" />
    </radialGradient>
    <linearGradient
       x1="50%"
       y1="0%"
       x2="50%"
       y2="100%"
       id="d">
      <stop
         stop-color="#4234F8"
         stop-opacity=".8"
         offset="0%"
         id="stop336" />
      <stop
         stop-color="#4234F8"
         stop-opacity="0"
         offset="100%"
         id="stop338" />
    </linearGradient>
    <filter
       id="a">
      <feTurbulence
         type="fractalNoise"
         numOctaves="2"
         baseFrequency=".3"
         result="turb"
         id="feTurbulence341" />
      <feComposite
         in="turb"
         operator="arithmetic"
         k1=".1"
         k2=".1"
         k3=".1"
         k4=".1"
         result="result1"
         in2="turb"
         id="feComposite343" />
      <feComposite
         operator="in"
         in="result1"
         in2="SourceGraphic"
         result="finalFilter"
         id="feComposite345" />
      <feBlend
         mode="multiply"
         in="finalFilter"
         in2="SourceGraphic"
         id="feBlend347" />
    </filter>
  </defs>
  <g
     fill="none"
     fill-rule="evenodd"
     filter="url(#a)"
     id="g364">
    <path
       d="M173.286 346.278c37.75 237.363 436.799-108.302 173.285-173.139C83.058 108.302 268.99 0 173.286 0S0 77.517 0 173.14c0 95.621 135.536-64.225 173.286 173.138z"
       transform="translate(219 194)"
       fill="url(#b)"
       id="path352"
       style="fill:#000000" />
    <path
       d="M216 343c185-39.91 172-77.007 172-172s-115 7-172-123.102C159-82.203-100.836 90.254 44 171c144.836 80.746-13 211.91 172 172z"
       transform="translate(56)"
       fill="url(#c)"
       id="path354"
       style="fill:#ffff00" />
    <path
       fill="#C1C3DA"
       d="M349.608 16l-3.624 1.667-.984 3.53 1.158 3.36 3.45 1.443 3.249-1.639L355 21.196l-1.62-3.674z"
       id="path356"
       style="fill:#e6e6e6" />
    <path
       fill-opacity=".64"
       fill="#FF6C50"
       d="M351.304 55l-1.812.833-.492 1.765.579 1.68 1.725.722 1.624-.82L354 57.599l-.81-1.837z"
       id="path358"
       style="fill:#000000" />
    <path
       fill-opacity=".64"
       fill="#268DF7"
       d="M323.686 37l-2.899 1.334-.787 2.823.926 2.688 2.76 1.155 2.6-1.31L328 41.156l-1.295-2.94z"
       id="path360"
       style="fill:#ffcc00" />
    <path
       d="M392.286 540.278c37.75 237.363 436.799-108.302 173.285-173.139C302.058 302.302 487.99 194 392.286 194S219 271.517 219 367.14c0 95.621 135.536-64.225 173.286 173.138z"
       fill="url(#d)"
       transform="matrix(-1 0 0 1 874 0)"
       id="path362"
       style="fill:#999999" />
  </g>
</svg>
