<?xml version="1.0" encoding="UTF-8" standalone="no"?>
<svg
   xmlns:dc="http://purl.org/dc/elements/1.1/"
   xmlns:cc="http://creativecommons.org/ns#"
   xmlns:rdf="http://www.w3.org/1999/02/22-rdf-syntax-ns#"
   xmlns:svg="http://www.w3.org/2000/svg"
   xmlns="http://www.w3.org/2000/svg"
   xmlns:sodipodi="http://sodipodi.sourceforge.net/DTD/sodipodi-0.dtd"
   xmlns:inkscape="http://www.inkscape.org/namespaces/inkscape"
   width="876"
   height="760"
   version="1.1"
   id="svg490"
   sodipodi:docname="iphone-feature-bg-04.svg"
   inkscape:version="1.0.1 (3bc2e813f5, 2020-09-07)">
  <metadata
     id="metadata494">
    <rdf:RDF>
      <cc:Work
         rdf:about="">
        <dc:format>image/svg+xml</dc:format>
        <dc:type
           rdf:resource="http://purl.org/dc/dcmitype/StillImage" />
      </cc:Work>
    </rdf:RDF>
  </metadata>
  <sodipodi:namedview
     pagecolor="#ffffff"
     bordercolor="#666666"
     borderopacity="1"
     objecttolerance="10"
     gridtolerance="10"
     guidetolerance="10"
     inkscape:pageopacity="0"
     inkscape:pageshadow="2"
     inkscape:window-width="1920"
     inkscape:window-height="1057"
     id="namedview492"
     showgrid="false"
     inkscape:zoom="1.1710526"
     inkscape:cx="438"
     inkscape:cy="380"
     inkscape:window-x="1912"
     inkscape:window-y="-8"
     inkscape:window-maximized="1"
     inkscape:current-layer="g478" />
  <defs
     id="defs468">
    <linearGradient
       x1="50%"
       y1="0%"
       x2="50%"
       y2="100%"
       id="b">
      <stop
         stop-color="#268DF7"
         offset="0%"
         id="stop434" />
      <stop
         stop-color="#268DF7"
         stop-opacity="0"
         offset="100%"
         id="stop436" />
    </linearGradient>
    <radialGradient
       cx="33.3%"
       cy="43.394%"
       fx="33.3%"
       fy="43.394%"
       r="58.741%"
       gradientTransform="matrix(.24453 -.95258 .76548 .3043 -.08 .62)"
       id="c">
      <stop
         stop-color="#FF6C50"
         stop-opacity="0"
         offset="0%"
         id="stop439" />
      <stop
         stop-color="#FF6C50"
         stop-opacity=".64"
         offset="51.712%"
         id="stop441" />
      <stop
         stop-color="#FF6C50"
         stop-opacity=".24"
         offset="100%"
         id="stop443" />
    </radialGradient>
    <radialGradient
       cx="33.3%"
       cy="43.394%"
       fx="33.3%"
       fy="43.394%"
       r="57.77%"
       id="d">
      <stop
         stop-color="#FF6C50"
         stop-opacity=".64"
         offset="0%"
         id="stop446" />
      <stop
         stop-color="#FF6C50"
         stop-opacity=".24"
         offset="100%"
         id="stop448" />
    </radialGradient>
    <filter
       x="0%"
       y="0%"
       width="100%"
       height="100%"
       filterUnits="objectBoundingBox"
       id="e">
      <feGaussianBlur
         in="SourceGraphic"
         id="feGaussianBlur451" />
    </filter>
    <linearGradient
       x1="50%"
       y1="0%"
       x2="50%"
       y2="100%"
       id="f">
      <stop
         stop-color="#268DF7"
         stop-opacity=".8"
         offset="0%"
         id="stop454" />
      <stop
         stop-color="#268DF7"
         stop-opacity="0"
         offset="100%"
         id="stop456" />
    </linearGradient>
    <filter
       id="a">
      <feTurbulence
         type="fractalNoise"
         numOctaves="2"
         baseFrequency=".3"
         result="turb"
         id="feTurbulence459" />
      <feComposite
         in="turb"
         operator="arithmetic"
         k1=".1"
         k2=".1"
         k3=".1"
         k4=".1"
         result="result1"
         in2="turb"
         id="feComposite461" />
      <feComposite
         operator="in"
         in="result1"
         in2="SourceGraphic"
         result="finalFilter"
         id="feComposite463" />
      <feBlend
         mode="multiply"
         in="finalFilter"
         in2="SourceGraphic"
         id="feBlend465" />
    </filter>
  </defs>
  <g
     fill="none"
     fill-rule="evenodd"
     filter="url(#a)"
     id="g488">
    <path
       d="M173.286 346.278c37.75 237.363 436.799-108.302 173.285-173.139C83.058 108.302 268.99 0 173.286 0S0 77.517 0 173.14c0 95.621 135.536-64.225 173.286 173.138z"
       transform="matrix(-1 0 0 1 655 193)"
       fill="url(#b)"
       id="path470"
       style="fill:#000000" />
    <g
       transform="translate(432)"
       id="g478">
      <path
         d="M219.833 343c94.993 0 172-77.007 172-172s-87.598-167.172-172-135.18c-84.403 31.992-27 113.196-172 135.18-145 21.984 77.007 172 172 172z"
         fill="url(#c)"
         transform="matrix(-1 0 0 1 391.833 0)"
         id="path472"
         style="fill:#999999" />
      <circle
         fill-opacity="0.72"
         fill="url(#d)"
         cx="183.85393"
         cy="40"
         r="40"
         id="circle474"
         style="fill:#ffcc00" />
      <circle
         fill-opacity="0.48"
         fill="url(#d)"
         filter="url(#e)"
         cx="298"
         cy="87"
         id="circle476"
         r="16"
         style="fill:#000000" />
    </g>
    <path
       d="M392.286 539.278c37.75 237.363 436.799-108.302 173.285-173.139C302.058 301.302 487.99 193 392.286 193S219 270.517 219 366.14c0 95.621 135.536-64.225 173.286 173.138z"
       fill="url(#f)"
       id="path480"
       style="fill:#ffff00" />
    <path
       fill="#C1C3DA"
       d="M697.608 50l-3.624 1.667-.984 3.53 1.158 3.36 3.45 1.443 3.249-1.639L703 55.196l-1.62-3.674z"
       id="path482" />
    <path
       fill-opacity=".64"
       fill="#FF6C50"
       d="M683.304 72l-1.812.833-.492 1.765.579 1.68 1.725.722 1.624-.82L686 74.599l-.81-1.837z"
       id="path484"
       style="fill:#28220b" />
    <path
       fill-opacity=".64"
       fill="#4234F8"
       d="M729.686 119l-2.899 1.334-.787 2.823.926 2.688 2.76 1.155 2.6-1.31 1.714-2.533-1.295-2.94z"
       id="path486"
       style="fill:#ffcc00" />
  </g>
</svg>
